# xmcd
#
# Track frame offsets: 
#        150
#        16765
#        37067
#
# Disc length: 808 seconds
#
# Revision: 9
# Processed by: cddbd v1.5.2PL0 Copyright (c) Steve Scherf et al.
# Submitted via: ExactAudioCopyFreeDBPlugin 1.0
#
DISCID=1a032603
DTITLE=Saint Etienne / Heart Failed (In The Back Of A Taxi) [CD1]
DYEAR=2000
DGENRE=BritPop
TTITLE0=Heart Failed [In The Back Of A Taxi]
TTITLE1=Thank You
TTITLE2=Bar Conscience
EXTD=ID3G: 17 YEAR: 2000\n
EXTT0=
EXTT1=
EXTT2=
PLAYORDER=
